<svg width="40" height="40" viewBox="0 0 40 40" fill="none" xmlns="http://www.w3.org/2000/svg">
  <rect x="2" y="2" width="36" height="36" rx="8" fill="#000000"/>
  <rect x="2.75" y="2.75" width="34.5" height="34.5" rx="7.25" stroke="#5EA1FF" stroke-width="1.5"/>
  <path d="M10 29V11h8.4c3.9 0 6.3 2.1 6.3 5.5 0 2.4-1.2 4.1-3.3 4.9L25.2 29h-4.4l-3.3-6.9H14V29h-4Zm4-10.2h4c1.7 0 2.7-.8 2.7-2.3 0-1.5-1-2.3-2.7-2.3h-4v4.6Z" fill="#E6EDF3"/>
  <path d="M27 11h2.8c3.3 0 5.2 1.6 5.2 4.2 0 1.5-.7 2.7-1.9 3.4 1.6.7 2.5 2.2 2.5 4.3 0 3.8-2.5 6.1-6.3 6.1H27V11Zm2.7 7h.5c1 0 1.7-.8 1.7-2s-.7-1.9-1.7-1.9h-.5V18Zm0 7.8h.8c1.2 0 2-.9 2-2.6s-.8-2.6-2-2.6h-.8v5.2Z" fill="#86B8FF"/>
</svg>
